<svg xmlns="http://www.w3.org/2000/svg" width="78" height="69" fill="none" viewBox="0 0 78 69">
    <path fill="#FFE41E" d="M35.726 28.478H20.943V69h14.783V28.48zM56.668 39.458H41.885V69h14.783V39.458zM77.61 20.93H62.829v48.069H77.61v-48.07zM14.783 43.766H0V69h14.783V43.766z"/>
    <path fill="#FFE41E" d="M7.39 33.852c3.401 0 6.16-2.466 6.16-5.506 0-.721-.166-1.406-.448-2.037l11.853-8.653c.97.57 2.129.907 3.377.907 1.585 0 3.016-.55 4.108-1.43l10.844 5.704a4.876 4.876 0 0 0-.168 1.234c0 3.042 2.757 5.508 6.16 5.508 3.402 0 6.16-2.465 6.16-5.508 0-.908-.27-1.752-.706-2.508l12.637-11.2a6.665 6.665 0 0 0 2.852.653c3.402 0 6.16-2.466 6.16-5.506 0-3.042-2.757-5.51-6.16-5.51s-6.16 2.468-6.16 5.51c0 .908.27 1.752.705 2.508L52.126 19.216a6.666 6.666 0 0 0-2.851-.653c-1.586 0-3.015.55-4.108 1.43L34.323 14.29c.103-.399.17-.808.17-1.235 0-3.042-2.759-5.508-6.16-5.508-3.402 0-6.16 2.466-6.16 5.508 0 .722.165 1.406.446 2.037l-11.85 8.653a6.654 6.654 0 0 0-3.378-.91c-3.402 0-6.16 2.468-6.16 5.51 0 3.04 2.757 5.507 6.16 5.507z"/>
</svg>
