<svg xmlns="http://www.w3.org/2000/svg" width="89" height="74" fill="none" viewBox="0 0 89 74">
    <path fill="#FFE41E" d="M18.51 18.425c5.69 0 10.303-4.125 10.303-9.212C28.813 4.125 24.2 0 18.51 0 12.82 0 8.209 4.125 8.209 9.213c0 5.088 4.612 9.212 10.302 9.212zM31.623 25.625c-1.873-2.847-5.432-4.69-9.366-4.69h-7.68c-5.525 0-10.208 3.685-10.864 8.627l-1.03 7.956c-.094 1.005.656 2.01 1.78 2.262 4.401.837 9.084 1.256 13.954 1.256 2.435 0 4.87-.084 7.212-.335l.936-6.868c.562-3.35 2.435-6.198 5.058-8.208zM70.584 18.425c5.69 0 10.302-4.125 10.302-9.212C80.886 4.125 76.274 0 70.584 0c-5.69 0-10.302 4.125-10.302 9.213 0 5.088 4.612 9.212 10.302 9.212zM70.583 40.953c4.87 0 9.553-.419 13.955-1.256 1.124-.251 1.873-1.173 1.78-2.262l-1.03-7.957c-.75-4.858-5.34-8.543-10.865-8.543h-7.68c-3.933 0-7.398 1.843-9.271 4.69 2.715 2.01 4.589 4.858 4.963 8.209l.937 6.868c2.341.168 4.776.251 7.211.251zM48.387 25.543h-7.68c-5.525 0-10.208 3.684-10.864 8.625l-1.03 7.955c-.093 1.005.562 2.01 1.78 2.26 4.402.838 9.084 1.257 13.954 1.257 4.87 0 9.553-.419 13.955-1.256 1.124-.252 1.873-1.173 1.78-2.261l-1.03-7.955c-.656-4.94-5.339-8.625-10.865-8.625zM44.547 23.03c5.69 0 10.302-4.124 10.302-9.212 0-5.087-4.612-9.211-10.302-9.211-5.69 0-10.302 4.124-10.302 9.211 0 5.088 4.612 9.212 10.302 9.212zM24.88 54.351l-6.463-.502c-.562-.084-1.124-.335-1.311-.838l-2.435-5.276c-.562-1.173-2.342-1.173-2.903 0l-2.53 5.36c-.187.502-.748.837-1.31.837l-6.463.42C.06 54.434-.5 56.025.53 56.78l4.87 3.769c.468.335.655.837.468 1.424L4.37 67.584c-.281 1.257 1.124 2.178 2.341 1.508l5.526-3.015a1.776 1.776 0 0 1 1.592 0l5.526 3.015c1.217.67 2.716-.335 2.341-1.508l-1.311-5.611c-.094-.503.093-1.089.468-1.424l4.87-3.769c1.124-.754.562-2.345-.843-2.429zM56.254 58.705l-6.462-.503c-.562-.083-1.124-.335-1.311-.837l-2.529-5.36c-.562-1.172-2.341-1.172-2.903 0l-2.529 5.36c-.187.502-.75.837-1.311.837l-6.462.503c-1.405.084-1.967 1.675-.937 2.428l4.87 3.769c.468.335.656.837.468 1.424l-1.498 5.61c-.28 1.256 1.124 2.178 2.341 1.508l5.526-3.015a1.776 1.776 0 0 1 1.592 0l5.526 3.015c1.218.67 2.716-.335 2.341-1.508l-1.498-5.61c-.094-.503.093-1.09.468-1.424l4.87-3.769c1.405-.753.843-2.345-.562-2.428zM88.471 56.864c1.03-.838.468-2.345-.936-2.429l-6.463-.503c-.562-.083-1.123-.335-1.31-.837l-2.436-5.36c-.562-1.173-2.341-1.173-2.903 0l-2.529 5.36c-.187.502-.75.837-1.311.837l-6.369.42c-1.404.083-1.966 1.674-.936 2.428l4.87 3.769c.468.335.656.837.468 1.424l-1.498 5.611c-.281 1.257 1.124 2.178 2.341 1.508l5.526-3.015a1.776 1.776 0 0 1 1.592 0l5.526 3.015c1.217.67 2.716-.335 2.341-1.508l-1.311-5.611c-.094-.503.094-1.089.468-1.424l4.87-3.685z"/>
</svg>
