<svg xmlns="http://www.w3.org/2000/svg" width="68" height="107" fill="none" viewBox="0 0 68 107">
    <path fill="#FFE41E" d="M33.685 0C15.081 0 0 15.072 0 33.663a33.508 33.508 0 0 0 3.456 14.87l.332.693L33.679 107l29.638-57.285.167-.34a33.499 33.499 0 0 0 3.886-15.713C67.37 15.072 52.29 0 33.685 0zm-2.242 24.145V28.027c0 1.941-1.943 1.941-1.943 3.883v17.47c0 .97-.972 1.942-1.943 1.942h-1.942c-.971 0-1.943-.971-1.943-1.942V31.91c0-1.942-1.943-1.942-1.943-3.883V18.32c0-.97.97-1.942 1.943-1.942.485 0 .485.592.485.97v7.765c0 .38 0 .97.487.97.485 0 .485-.592.485-.97V17.35c0-.379 0-.97.485-.97h1.943c.486 0 .486.592.486.97v7.765c0 .38 0 .97.485.97.487 0 .487-.592.487-.97V17.35c0-.379 0-.97.485-.97.97 0 1.943.97 1.943 1.942v5.824zM45.64 49.38c0 .97-.97 1.942-1.943 1.942h-1.942c-.972 0-1.943-.971-1.943-1.942V37.734c-.97 0-1.943-.971-1.943-1.941v-7.765c0-1.941 0-6.794.972-8.735 1.228-2.455 4.855-2.911 6.798-2.911h.001V49.38z"/>
</svg>
