<svg xmlns="http://www.w3.org/2000/svg" width="71" height="106" fill="none" viewBox="0 0 71 106">
    <path fill="#FFE41E" fill-rule="evenodd" d="M38.48 87.652c2.289 1.684 5.19.661 7.53-.42 2.537-1.172 4.668-2.737 7.085-3.263 2.731-.592 7.231.457 7.539 3.799.307 3.316-4.029 5.645-6.89 4.676-2.538-.855-2.468-2.383-4.399-3.62-.724.405-1.348.731-2.102 1.081-2.312 1.072-4.723 1.823-7.298 1.461-.924-.13-2-.608-2.845-1.297-1.141-.933-1.398-1.905-1.335-2.727.133-1.745 1.683-2.596 3.879-2.895.802-.107 1.55.45 1.66 1.257a1.474 1.474 0 0 1-1.266 1.66l-1.558.288zm-7.137-3.205c2.197.299 3.746 1.15 3.879 2.895.063.822-.194 1.796-1.335 2.727-.842.689-1.92 1.167-2.845 1.297-2.575.362-4.986-.39-7.298-1.461a29.942 29.942 0 0 1-2.102-1.08c-1.93 1.238-1.861 2.764-4.398 3.62-2.862.966-7.198-1.363-6.89-4.677.307-3.342 4.807-4.39 7.538-3.799 2.415.526 4.548 2.091 7.086 3.264 2.34 1.08 5.24 2.103 7.53.419l-1.554-.289a1.471 1.471 0 0 1-1.266-1.659 1.466 1.466 0 0 1 1.655-1.257zM48.94 17.113H31.28c6.258-1.9 12.173-4.207 17.659-7.027v7.027zm8.88 20.726L46.211 50.541h-5.004l-1.419-1.42-1.853 1.898 17.385 17.322-3.845 3.847-17.189-17.436-17.046 17.436-3.847-3.847 15.709-15.357L13.18 33.596l3.668-3.668 17.717 17.716 1.895-1.856-1.421-1.419v-5.003L47.742 27.76l2.363 2.363-9.316 9.316 1.304 1.299 9.507-9.122 2.365 2.363-9.126 9.505 1.301 1.303 9.316-9.316 2.362 2.37zM19.121 87.424c-1.106-1.122-5.662-1.297-5.8.655-.067.95 1.961 1.917 2.985 1.575.627-.206 1.551-1.6 2.815-2.23zm32.74 0c1.263.63 2.187 2.024 2.815 2.232 1.023.342 3.05-.627 2.983-1.575-.136-1.954-4.693-1.777-5.799-.657zM71 105.285V17.113H54.797V0C45.84 5.308 38.553 8.913 28.37 11.89 20.455 14.208 6.972 17.114 0 17.114v88.172h71z" clip-rule="evenodd"/>
</svg>
