<svg xmlns="http://www.w3.org/2000/svg" width="81" height="79" fill="none" viewBox="0 0 81 79">
    <path fill="#FFE41E" d="M9.592 10.928c0-3.91 3.304-7.018 7.46-7.018 4.157 0 7.461 3.108 7.461 7.018 0 3.91-3.304 7.017-7.46 7.017-4.157 0-7.46-3.107-7.46-7.017zm7.46 11.028C7.994 21.956.533 28.572 0 36.994h34.105c-.533-8.422-7.993-15.038-17.052-15.038zm39.435 27.068c0 3.91 3.304 7.018 7.46 7.018 4.157 0 7.46-3.108 7.46-7.018 0-3.91-3.303-7.018-7.46-7.018-4.156 0-7.46 3.108-7.46 7.018zm7.46 11.028c-9.059 0-16.52 6.617-17.052 15.038H81c-.533-8.421-7.993-15.038-17.053-15.038zM51.157 19.95c.534 0 1.067-.2 1.493-.601.853-.802.853-2.005 0-2.807l-4.903-4.612h14.069v18.046c0 1.103.959 2.005 2.131 2.005 1.173 0 2.132-.902 2.132-2.005v-19.55-.2-.2c0-1.103-.96-2.006-2.132-2.006h-16.2L52.65 3.41c.853-.802.853-2.005 0-2.807a2.151 2.151 0 0 0-2.984 0l-8.526 8.02c-.107.1-.214.2-.214.3 0 0-.106.1-.106.201 0 .1-.107.1-.107.2s0 .1-.106.201c0 .1 0 .1-.107.2-.107.301-.107.502 0 .803 0 .1 0 .1.107.2 0 .1 0 .1.106.2 0 .1.107.1.107.201 0 .1.106.1.106.2.107.1.213.201.213.301l8.527 8.02c.426.101.959.302 1.492.302zm-19.29 48.523c0-.1 0-.1-.107-.2 0-.1-.106-.1-.106-.2 0 0 0-.1-.107-.1-.106-.101-.213-.201-.213-.302l-8.526-8.02a2.151 2.151 0 0 0-2.984 0c-.853.802-.853 2.005 0 2.807l4.902 4.612H10.658V49.024c0-1.103-.96-2.005-2.132-2.005-1.172 0-2.131.902-2.131 2.005v19.95c0 1.103.959 2.006 2.131 2.006h16.2l-4.902 4.611c-.853.802-.853 2.005 0 2.808.426.4.959.601 1.492.601s1.066-.2 1.492-.602l8.526-8.02c.107-.1.213-.2.213-.3l.107-.1c0-.101.107-.101.107-.201s0-.1.106-.2c0-.101 0-.101.107-.201.106-.301.106-.502 0-.802-.107 0-.107 0-.107-.1z"/>
</svg>
