<svg xmlns="http://www.w3.org/2000/svg" width="113" height="141" fill="none" viewBox="0 0 113 141">
    <path fill="#FFE41E" d="M103.2 5.904H9.799c-4.326 0-7.945 3.525-7.945 7.931v66.359c0 4.318 3.53 7.93 7.945 7.93h57.206l.442.706c5.914 8.989 14.478 15.334 24.718 18.242-3.001-5.816-3.972-12.514-2.913-18.947H103.2c4.326 0 7.946-3.525 7.946-7.931V13.747c-.089-4.318-3.62-7.843-7.946-7.843zM37.343 46.442L35.4 48.38a62.37 62.37 0 0 0-.97 1.058c-.442.352-.619 1.146-.53 1.674l.794 3.966c0 .705-.176 1.057-.441 1.322-.265.352-.706.529-1.148.529-.441 0-.794-.177-1.148-.353l-1.765-.705-.618-.264c-.442-.265-1.148-.353-1.766-.44-.706 0-1.324.175-1.765.44l-.618.264-1.766.705c-.353.176-.706.353-1.148.353-.441 0-.883-.177-1.147-.53-.177-.264-.442-.616-.442-1.321l.795-3.966c.088-.528-.177-1.322-.53-1.674 0 0-.794-.881-.971-1.058l-1.942-1.938c-.883-.882-.795-1.587-.706-2.027.176-.44.53-.705 1.059-.793l4.59-.529c.53-.088 1.236-.529 1.413-1.058.53-1.057.971-2.203 1.5-3.26.354-.793.619-1.763 1.767-1.85 1.059.087 1.324 1.057 1.765 1.85.53 1.057.971 2.203 1.5 3.26.266.53.884.97 1.413 1.058l4.591.529c.441.088.883.352.971.793 0 .44.088 1.145-.794 2.027zm28.603 0l-1.942 1.938a62.797 62.797 0 0 0-.972 1.058c-.441.352-.706 1.146-.53 1.674l.795 3.966c0 .705-.176 1.057-.353 1.322-.265.352-.706.529-1.148.529-.44 0-.794-.177-1.147-.353l-1.766-.705-.618-.264c-.441-.265-1.147-.353-1.765-.44-.707 0-1.325.175-1.766.44l-.618.264-1.766.705c-.353.176-.706.353-1.147.353-.442 0-.883-.177-1.148-.53-.176-.264-.441-.616-.441-1.321l.706-3.966c.088-.528-.177-1.322-.53-1.674 0 0-.794-.881-.97-1.058l-2.031-1.938c-.883-.882-.795-1.587-.707-2.027.177-.44.53-.705 1.06-.793l4.59-.529c.53-.088 1.236-.529 1.413-1.058.53-1.057.971-2.203 1.5-3.26.354-.793.619-1.763 1.766-1.85 1.06.087 1.325 1.057 1.766 1.85.53 1.057.971 2.203 1.5 3.26.266.53.883.97 1.413 1.058l4.59.529c.442.088.884.352 1.06.793.089.44.089 1.145-.794 2.027zm28.691 0l-1.942 1.938a62.797 62.797 0 0 0-.971 1.058c-.442.352-.706 1.146-.53 1.674l.795 3.966c0 .705-.177 1.057-.442 1.322-.265.352-.706.529-1.147.529-.442 0-.795-.177-1.148-.353l-1.766-.705-.706-.264c-.441-.265-1.148-.353-1.766-.44-.706 0-1.324.175-1.765.44l-.618.264-1.766.705c-.353.176-.706.353-1.147.353-.442 0-.883-.177-1.148-.53-.177-.264-.441-.616-.441-1.321l.794-3.966c.088-.528-.177-1.322-.53-1.674 0 0-.794-.881-.97-1.058l-1.943-1.938c-.883-.882-.794-1.587-.706-2.027.176-.44.53-.705.97-.793l4.591-.529c.53-.088 1.237-.529 1.413-1.058.53-1.057.971-2.203 1.5-3.26.354-.793.619-1.763 1.766-1.85 1.06.087 1.413 1.057 1.766 1.85a53.554 53.554 0 0 0 1.5 3.26c.266.53.884.97 1.413 1.058l4.591.529c.441.088.883.352 1.06.793.088.44.176 1.145-.707 2.027z"/>
</svg>
