<svg xmlns="http://www.w3.org/2000/svg" width="82" height="77" fill="none" viewBox="0 0 82 77">
    <path fill="#FFE41E" d="M46.45 5.141c0 .25-.133.439-.332.627-.863.69-1.725 1.38-2.654 2.069-.266.188-.266.376-.2.627.266 1.003.531 2.006.797 3.072.133.376 0 .69-.332.94-.265.188-.664.188-1.062 0a71.821 71.821 0 0 1-2.92-1.755c-.199-.126-.331-.126-.53 0-.93.564-1.858 1.129-2.787 1.63-.266.188-.531.25-.863.188-.464-.125-.73-.564-.597-1.003.265-1.128.597-2.194.863-3.323.066-.188 0-.25-.133-.376-.863-.627-1.66-1.317-2.455-2.006-.332-.251-.598-.502-.531-.94 0-.44.331-.753.796-.753 1.194-.063 2.455-.125 3.65-.25.199 0 .265-.126.331-.252.399-.94.797-1.88 1.261-2.884.067-.062.067-.188.133-.25.199-.314.464-.502.863-.502.398 0 .663.188.796.564.464 1.003.863 2.07 1.327 3.072-.133.251 0 .377.265.377l3.186.188c.132 0 .331 0 .464.062a.948.948 0 0 1 .664.878zM69.675 18.747c-.2.189-.465.251-.73.189-1.128-.126-2.256-.189-3.384-.314-.332-.063-.465.063-.597.314a61.164 61.164 0 0 1-1.726 2.696c-.199.313-.53.502-.929.439-.398-.063-.663-.314-.73-.753-.265-1.066-.53-2.132-.73-3.198-.066-.25-.132-.313-.398-.376-1.061-.25-2.123-.501-3.251-.69-.332-.062-.597-.188-.73-.438-.265-.377-.133-.878.332-1.13 1.062-.563 2.057-1.19 3.119-1.755a.343.343 0 0 0 .199-.313c-.067-1.004-.2-2.07-.266-3.073-.066-.376-.066-.752.266-1.003.331-.25.796-.314 1.128 0 .929.752 1.858 1.505 2.72 2.257.133.126.266.063.398.063.996-.376 1.991-.815 3.053-1.191.066-.063.199-.063.265-.126.332-.125.664-.063.996.188.265.251.331.565.199.94a146.47 146.47 0 0 0-1.394 3.073c-.066.189-.066.314.067.502.73.752 1.393 1.505 2.123 2.32.133.125.2.25.265.376.133.314.067.69-.265 1.003zM76.045 43.892c-.266 0-.465-.125-.664-.314-.73-.815-1.46-1.63-2.19-2.508-.199-.25-.398-.25-.663-.188-1.062.251-2.124.502-3.252.753-.398.125-.73 0-.995-.314-.199-.25-.199-.627 0-1.003a67.07 67.07 0 0 1 1.858-2.759c.133-.188.133-.313 0-.502-.597-.877-1.194-1.755-1.725-2.633-.2-.25-.266-.502-.2-.815.133-.44.598-.69 1.062-.565 1.195.251 2.323.565 3.517.816.2.062.266 0 .398-.126.664-.815 1.394-1.567 2.124-2.32.265-.313.53-.564.995-.501.465 0 .796.313.796.752.067 1.129.133 2.32.266 3.449 0 .188.133.25.265.313.996.376 1.991.753 3.053 1.191.066.063.199.063.265.126.332.188.531.439.531.815 0 .376-.199.627-.597.753-1.062.438-2.19.815-3.252 1.254-.199.062-.331.188-.331.438l-.2 3.01c0 .126 0 .314-.066.44-.199.187-.597.438-.995.438zM61.646 65.84a.682.682 0 0 1-.2-.69c.134-1.066.2-2.132.333-3.198.066-.314-.067-.44-.332-.565a66.133 66.133 0 0 1-2.854-1.63c-.331-.188-.53-.502-.464-.878s.332-.627.796-.69c1.128-.25 2.256-.501 3.384-.69.266-.062.332-.125.399-.376.265-1.003.53-2.006.73-3.072.066-.314.199-.565.464-.69.398-.25.929-.125 1.194.314.598 1.003 1.261 1.943 1.858 2.947.067.125.2.188.332.188 1.062-.063 2.19-.188 3.252-.251.398-.063.796-.063 1.061.25.266.314.332.753 0 1.067a96.2 96.2 0 0 1-2.388 2.57c-.133.126-.067.252-.067.377.398.94.863 1.881 1.261 2.885.066.062.066.188.133.25.132.314.066.627-.2.94-.265.252-.597.314-.995.189a164.193 164.193 0 0 0-3.251-1.317c-.2-.063-.332-.063-.531.063-.796.69-1.593 1.317-2.455 2.007a1.397 1.397 0 0 1-.398.25c-.332.126-.73.063-1.062-.25zM35.037 71.859c0-.251.132-.44.331-.627.863-.69 1.726-1.38 2.655-2.07.265-.188.265-.376.199-.627-.266-1.003-.531-2.006-.797-3.072-.132-.376 0-.69.332-.94.266-.189.664-.189 1.062 0a71.939 71.939 0 0 1 2.92 1.755c.199.125.331.125.53 0 .93-.564 1.858-1.129 2.787-1.63.266-.188.531-.251.863-.188.465.125.73.564.597 1.003-.265 1.129-.597 2.195-.862 3.323-.067.188 0 .25.132.376.863.627 1.66 1.317 2.456 2.007.331.25.597.501.53.94 0 .44-.331.753-.796.753-1.194.062-2.455.125-3.65.25-.199 0-.265.126-.331.251-.398.94-.796 1.881-1.261 2.885-.066.062-.066.188-.133.25-.199.314-.464.502-.862.502-.398 0-.664-.188-.797-.564-.464-1.004-.862-2.07-1.327-3.073-.066-.188-.199-.313-.464-.313l-3.185-.188c-.133 0-.332 0-.465-.063-.199-.188-.464-.564-.464-.94zM11.812 58.251c.2-.188.465-.25.73-.188 1.128.125 2.257.188 3.385.314.331.062.464-.063.597-.314a61.07 61.07 0 0 1 1.725-2.696c.2-.314.53-.502.929-.439.398.063.664.314.73.752.265 1.066.53 2.132.73 3.198.066.251.133.314.398.377 1.062.25 2.123.501 3.252.69.331.062.597.187.73.438.265.376.132.878-.332 1.129-1.062.564-2.057 1.191-3.12 1.755a.343.343 0 0 0-.198.314c.066 1.003.199 2.07.265 3.072.067.377.067.753-.265 1.004-.332.25-.796.313-1.128 0-.93-.753-1.858-1.505-2.72-2.257-.134-.126-.266-.063-.399-.063-.995.376-1.99.815-3.052 1.191-.067.063-.2.063-.266.125-.332.126-.664.063-.995-.188-.266-.25-.332-.564-.2-.94.465-1.003.93-2.007 1.394-3.073.066-.188.066-.313-.066-.501-.73-.753-1.394-1.505-2.124-2.32-.132-.126-.199-.251-.265-.377-.133-.313-.066-.69.265-1.003zM5.441 33.107c.266 0 .465.125.664.313.73.816 1.46 1.63 2.19 2.509.199.25.398.25.663.188 1.062-.25 2.124-.502 3.252-.753.398-.125.73 0 .995.314.199.25.199.627 0 1.003a67.043 67.043 0 0 1-1.858 2.76c-.133.188-.133.313 0 .501.597.878 1.194 1.756 1.725 2.634.2.25.266.502.2.815-.133.44-.598.69-1.062.565-1.195-.251-2.323-.565-3.517-.816-.2-.062-.266 0-.398.126-.664.815-1.394 1.567-2.124 2.32-.265.314-.53.564-.995.502-.465 0-.796-.314-.796-.753-.067-1.129-.133-2.32-.266-3.449 0-.188-.133-.25-.265-.313-.996-.377-1.991-.753-3.053-1.192-.066-.063-.199-.063-.265-.125-.332-.188-.531-.44-.531-.816 0-.376.2-.627.597-.752 1.062-.439 2.19-.815 3.252-1.254.265.125.398 0 .398-.251l.199-3.01c0-.126 0-.314.066-.439.133-.376.531-.627.93-.627zM19.841 11.16c.2.188.266.44.2.69-.133 1.066-.2 2.132-.332 3.198-.067.313.066.439.331.564a66.136 66.136 0 0 1 2.854 1.63c.332.189.53.502.464.879-.066.376-.332.627-.796.69-1.128.25-2.256.501-3.384.69-.266.062-.332.124-.398.375-.266 1.004-.531 2.007-.73 3.073-.067.313-.2.564-.465.69-.398.25-.929.125-1.194-.314-.597-1.003-1.261-1.944-1.858-2.947a.368.368 0 0 0-.332-.188c-1.062.063-2.19.188-3.252.25-.398.063-.796.063-1.061-.25-.266-.314-.332-.753 0-1.066.796-.878 1.592-1.756 2.389-2.571.132-.126.066-.25.066-.376-.398-.94-.863-1.881-1.26-2.885-.067-.063-.067-.188-.133-.25-.133-.314-.067-.628.199-.941.265-.251.597-.314.995-.188 1.062.439 2.123.878 3.251 1.316.2.063.332.063.531-.062.796-.69 1.593-1.317 2.455-2.007.133-.125.266-.188.399-.25.331-.126.73-.063 1.061.25zM58.46 30.788l-.133-.126c-.066-.063-.066-.063-.132-.063l-.067-.062s-.066 0-.066-.063l-.2-.063c-.065-.062-.198-.062-.265-.125-1.592-.502-3.317-.25-4.91-.126H51.294c-.332 0-.73 0-1.062.063h-.664c-.199 0-.398.063-.53.063h-.133c-.067 0-.067-.063-.067-.063l.465-1.505c.265-.94.597-1.88.863-2.821.464-1.317.597-2.446.464-3.45-.133-1.316-.995-2.57-2.19-3.26-.663-.376-1.46-.627-2.256-.627h-.199c-.73 0-1.194.44-1.26 1.129-.067.878-.2 1.693-.333 2.508-.199 1.38-.597 2.508-1.194 3.449a6.8 6.8 0 0 1-1.194 1.505c-.598.627-1.261 1.316-1.991 2.069l-1.659 1.756a21.37 21.37 0 0 1-1.194 1.191c-.067.063-.2.188-.332.25-.266.252-.597.44-.93.565-.198.063-.464.188-.796.251-1.393.376-2.19.752-2.256 1.505 0 .439-.066.815-.066 1.191v13.482h2.323c.73.125 1.526.25 2.521.376l.465.063c1.924.313 3.782.564 5.574.815 4.446.501 9.754 1.693 13.006-2.07 1.327-1.567 1.46-3.762 1.725-5.643.464-3.072 1.062-6.208 1.526-9.28.066-1.003-.465-2.195-1.46-2.884zM28.931 31.727h-5.906c-.796 0-1.393.565-1.393 1.317v16.492c0 .752.597 1.316 1.393 1.316h5.906c.796 0 1.394-.564 1.394-1.316V33.044c0-.752-.598-1.317-1.394-1.317z"/>
</svg>
