<svg xmlns="http://www.w3.org/2000/svg" width="126" height="18" fill="none" viewBox="0 0 126 18">
    <path fill="#000" d="M91.488 7.692h-2.104v6.731h2.104V7.692z"/>
    <path fill="#000" d="M91.487 7.113H87.63v2.403h3.857V7.113z"/>
    <path fill="#000" d="M91.137 7.692h-1.753v1.923h1.753V7.692z"/>
    <path fill="#000" d="M87.467 17.309l1.432-6.401L84.124 6.6l6.3-.556L92.887 0l2.467 6.038 6.295.563-4.785 4.302 1.436 6.399-5.413-3.393-5.415 3.397-.006.003zm5.415-5.114l3.293 2.068-.86-3.899 2.91-2.62-3.839-.34-1.498-3.679-1.498 3.68-3.838.336 2.907 2.623-.866 3.9 3.295-2.07h-.006zM71.858 13.909l5.415 3.397-1.438-6.403 4.785-4.302-6.295-.572L71.858 0l-2.463 6.03-6.3.571 4.774 4.302-1.428 6.403 5.417-3.397zM50.828 13.909l5.415 3.397-1.438-6.403 4.785-4.302-6.295-.572L50.828 0l-2.463 6.03-6.301.571 4.775 4.302-1.428 6.403 5.417-3.397zM29.796 13.909l5.415 3.397-1.438-6.403 4.785-4.302-6.295-.572L29.796 0l-2.463 6.03-6.301.571 4.775 4.302-1.428 6.403 5.417-3.397zM8.764 13.91l5.415 3.397-1.438-6.403 4.785-4.302-6.295-.572L8.764.001l-2.463 6.03L0 6.601l4.775 4.302-1.428 6.403 5.417-3.397zM107.378 12.267c0-.723.199-1.38.596-1.97.41-.59.97-1.012 1.681-1.265v-.037a2.656 2.656 0 0 1-1.247-1.012 3.01 3.01 0 0 1-.434-1.609c0-.964.38-1.765 1.139-2.404.759-.65 1.76-.976 3.001-.976 1.241 0 2.242.325 3.001.976.759.639 1.139 1.44 1.139 2.404 0 .603-.151 1.14-.452 1.61-.29.457-.699.794-1.23 1.011v.037c.724.253 1.284.674 1.682 1.265.397.59.596 1.26.596 2.006 0 1.23-.434 2.188-1.301 2.875-.856.675-2.001 1.012-3.435 1.012-1.434 0-2.585-.343-3.453-1.03-.855-.687-1.283-1.651-1.283-2.893zm2.892-5.694c0 .434.169.801.506 1.103.35.289.796.434 1.338.434s.982-.145 1.32-.434c.337-.301.506-.67.506-1.103 0-.446-.163-.813-.488-1.103-.326-.3-.772-.452-1.338-.452-.566 0-1.018.151-1.356.452-.325.29-.488.657-.488 1.103zm-.506 5.477c0 .579.205 1.043.615 1.392.409.35.988.525 1.735.525.747 0 1.32-.175 1.717-.525.41-.35.615-.813.615-1.392 0-.614-.211-1.108-.633-1.482-.41-.386-.976-.578-1.699-.578-.723 0-1.296.192-1.717.578-.422.374-.633.868-.633 1.482zm10.687 3.869h-2.893l6.02-10.358v-.036h-6.164v-2.26H126v2.53l-5.549 10.124z"/>
</svg>
